<svg xmlns="http://www.w3.org/2000/svg" xmlns:xlink="http://www.w3.org/1999/xlink" width="1080" zoomAndPan="magnify" viewBox="0 0 810 809.999993" height="1080" preserveAspectRatio="xMidYMid meet" version="1.0"><path fill="#fffeff" d="M 184.617188 221.902344 C 184.621094 218.277344 184.714844 214.65625 184.898438 211.035156 C 185.078125 207.417969 185.347656 203.804688 185.707031 200.195312 C 186.066406 196.589844 186.511719 192.996094 187.046875 189.410156 C 187.582031 185.824219 188.203125 182.253906 188.914062 178.699219 C 189.621094 175.144531 190.417969 171.613281 191.300781 168.097656 C 192.183594 164.582031 193.152344 161.089844 194.207031 157.621094 C 195.261719 154.152344 196.402344 150.714844 197.625 147.300781 C 198.847656 143.890625 200.152344 140.511719 201.542969 137.164062 C 202.929688 133.816406 204.398438 130.503906 205.949219 127.226562 C 207.5 123.949219 209.132812 120.714844 210.839844 117.519531 C 212.550781 114.324219 214.339844 111.171875 216.203125 108.0625 C 218.066406 104.953125 220.007812 101.894531 222.019531 98.878906 C 224.035156 95.867188 226.121094 92.90625 228.28125 89.996094 C 230.441406 87.082031 232.667969 84.226562 234.96875 81.425781 C 237.269531 78.625 239.636719 75.878906 242.070312 73.195312 C 244.503906 70.507812 247.003906 67.882812 249.566406 65.320312 C 252.128906 62.757812 254.75 60.257812 257.4375 57.824219 C 260.121094 55.390625 262.863281 53.023438 265.667969 50.722656 C 268.46875 48.421875 271.324219 46.195312 274.234375 44.035156 C 277.144531 41.875 280.105469 39.785156 283.121094 37.773438 C 286.132812 35.757812 289.191406 33.816406 292.300781 31.953125 C 295.410156 30.089844 298.5625 28.300781 301.757812 26.589844 C 304.953125 24.878906 308.1875 23.25 311.464844 21.699219 C 314.738281 20.148438 318.050781 18.675781 321.398438 17.289062 C 324.746094 15.898438 328.125 14.59375 331.539062 13.367188 C 334.949219 12.144531 338.390625 11.007812 341.855469 9.953125 C 345.324219 8.894531 348.816406 7.925781 352.332031 7.042969 C 355.847656 6.160156 359.378906 5.363281 362.933594 4.652344 C 366.488281 3.941406 370.058594 3.320312 373.644531 2.785156 C 377.226562 2.25 380.824219 1.800781 384.429688 1.441406 C 388.035156 1.082031 391.648438 0.8125 395.269531 0.632812 C 398.890625 0.449219 402.511719 0.355469 406.136719 0.351562 C 698.929688 10.707031 699.503906 432.167969 406.886719 443.417969 C 403.253906 443.425781 399.625 443.34375 395.996094 443.175781 C 392.367188 443.003906 388.746094 442.746094 385.132812 442.398438 C 381.515625 442.050781 377.910156 441.613281 374.316406 441.089844 C 370.722656 440.566406 367.144531 439.953125 363.582031 439.253906 C 360.015625 438.550781 356.472656 437.765625 352.945312 436.890625 C 349.421875 436.015625 345.921875 435.054688 342.441406 434.007812 C 338.964844 432.960938 335.515625 431.828125 332.09375 430.609375 C 328.667969 429.394531 325.277344 428.09375 321.921875 426.710938 C 318.5625 425.328125 315.238281 423.863281 311.953125 422.316406 C 308.667969 420.769531 305.421875 419.144531 302.214844 417.4375 C 299.007812 415.734375 295.84375 413.949219 292.726562 412.089844 C 289.605469 410.226562 286.535156 408.289062 283.511719 406.277344 C 280.488281 404.265625 277.515625 402.179688 274.59375 400.023438 C 271.671875 397.863281 268.804688 395.636719 265.996094 393.335938 C 263.183594 391.035156 260.429688 388.671875 257.734375 386.234375 C 255.039062 383.800781 252.402344 381.300781 249.832031 378.738281 C 247.257812 376.175781 244.75 373.546875 242.308594 370.863281 C 239.863281 368.175781 237.488281 365.429688 235.179688 362.625 C 232.871094 359.820312 230.632812 356.960938 228.464844 354.046875 C 226.292969 351.132812 224.199219 348.167969 222.175781 345.152344 C 220.15625 342.136719 218.207031 339.070312 216.335938 335.957031 C 214.464844 332.84375 212.667969 329.6875 210.953125 326.488281 C 209.234375 323.285156 207.597656 320.046875 206.039062 316.765625 C 204.484375 313.484375 203.007812 310.167969 201.613281 306.8125 C 200.21875 303.457031 198.90625 300.074219 197.679688 296.65625 C 196.449219 293.234375 195.308594 289.789062 194.25 286.316406 C 193.191406 282.839844 192.21875 279.34375 191.332031 275.820312 C 190.445312 272.296875 189.644531 268.757812 188.929688 265.195312 C 188.21875 261.632812 187.59375 258.058594 187.054688 254.464844 C 186.519531 250.871094 186.070312 247.269531 185.710938 243.65625 C 185.351562 240.042969 185.078125 236.421875 184.898438 232.792969 C 184.714844 229.164062 184.621094 225.535156 184.617188 221.902344 Z M 630.347656 443.519531 C 628.878906 442.621094 627.355469 441.832031 625.773438 441.148438 C 624.191406 440.46875 622.570312 439.90625 620.910156 439.460938 C 619.246094 439.011719 617.5625 438.6875 615.851562 438.480469 C 614.144531 438.277344 612.429688 438.195312 610.707031 438.238281 C 608.984375 438.28125 607.277344 438.445312 605.582031 438.734375 C 603.882812 439.023438 602.214844 439.433594 600.578125 439.960938 C 598.941406 440.488281 597.347656 441.132812 595.800781 441.890625 C 594.257812 442.648438 592.773438 443.511719 591.351562 444.484375 C 588.054688 447.160156 584.699219 449.765625 581.292969 452.300781 C 577.882812 454.832031 574.417969 457.292969 570.902344 459.675781 C 567.386719 462.058594 563.820312 464.367188 560.207031 466.597656 C 556.59375 468.828125 552.929688 470.980469 549.222656 473.054688 C 545.515625 475.125 541.765625 477.117188 537.972656 479.03125 C 534.175781 480.941406 530.34375 482.769531 526.472656 484.515625 C 522.597656 486.261719 518.691406 487.925781 514.746094 489.503906 C 510.804688 491.082031 506.828125 492.574219 502.820312 493.980469 C 498.8125 495.386719 494.773438 496.707031 490.710938 497.9375 C 486.644531 499.171875 482.554688 500.316406 478.441406 501.371094 C 474.324219 502.429688 470.191406 503.398438 466.035156 504.277344 C 461.878906 505.152344 457.707031 505.941406 453.515625 506.640625 C 449.324219 507.339844 445.121094 507.949219 440.90625 508.464844 C 436.691406 508.984375 432.464844 509.410156 428.230469 509.746094 C 423.996094 510.082031 419.753906 510.328125 415.511719 510.480469 C 411.265625 510.632812 407.019531 510.695312 402.769531 510.664062 C 398.523438 510.632812 394.277344 510.511719 390.035156 510.300781 C 385.792969 510.089844 381.558594 509.785156 377.328125 509.390625 C 373.097656 508.992188 368.878906 508.507812 364.671875 507.929688 C 360.460938 507.355469 356.269531 506.6875 352.089844 505.929688 C 347.90625 505.171875 343.746094 504.324219 339.601562 503.386719 C 335.460938 502.453125 331.339844 501.425781 327.238281 500.3125 C 323.140625 499.195312 319.066406 497.996094 315.019531 496.707031 C 310.972656 495.414062 306.953125 494.039062 302.964844 492.578125 C 298.980469 491.113281 295.023438 489.566406 291.101562 487.933594 C 287.179688 486.300781 283.296875 484.582031 279.449219 482.78125 C 275.601562 480.980469 271.796875 479.097656 268.027344 477.136719 C 264.261719 475.171875 260.539062 473.125 256.863281 471 C 253.183594 468.875 249.550781 466.671875 245.96875 464.390625 C 242.386719 462.109375 238.851562 459.753906 235.371094 457.320312 C 231.890625 454.886719 228.460938 452.378906 225.085938 449.800781 C 221.714844 447.21875 218.398438 444.566406 215.136719 441.839844 C 213.910156 441.277344 212.65625 440.789062 211.371094 440.378906 C 210.089844 439.96875 208.785156 439.636719 207.460938 439.382812 C 206.132812 439.128906 204.800781 438.957031 203.453125 438.863281 C 202.109375 438.769531 200.761719 438.761719 199.414062 438.832031 C 198.070312 438.902344 196.730469 439.054688 195.402344 439.285156 C 194.074219 439.519531 192.765625 439.832031 191.472656 440.222656 C 190.183594 440.613281 188.921875 441.078125 187.6875 441.625 C 186.453125 442.167969 185.253906 442.785156 184.09375 443.472656 C 177.289062 448 170.625 452.734375 164.109375 457.671875 C 157.59375 462.613281 151.234375 467.746094 145.035156 473.078125 C 138.835938 478.40625 132.804688 483.921875 126.945312 489.625 C 121.085938 495.328125 115.40625 501.203125 109.910156 507.257812 C 104.410156 513.308594 99.105469 519.523438 93.988281 525.902344 C 88.875 532.28125 83.960938 538.8125 79.25 545.492188 C 74.535156 552.175781 70.035156 558.996094 65.742188 565.953125 C 61.449219 572.914062 57.375 579.996094 53.519531 587.207031 C 49.664062 594.417969 46.035156 601.738281 42.628906 609.171875 C 39.222656 616.609375 36.050781 624.140625 33.109375 631.769531 C 30.171875 639.398438 27.46875 647.109375 25.003906 654.90625 C 22.535156 662.703125 20.3125 670.566406 18.332031 678.5 C 16.351562 686.429688 14.617188 694.417969 13.128906 702.457031 C 11.640625 710.496094 10.398438 718.574219 9.410156 726.691406 C 8.417969 734.804688 7.675781 742.945312 7.1875 751.105469 C 6.699219 759.269531 6.460938 767.4375 6.472656 775.613281 C 6.472656 776.730469 6.527344 777.839844 6.636719 778.949219 C 6.746094 780.058594 6.90625 781.160156 7.125 782.253906 C 7.34375 783.347656 7.613281 784.429688 7.933594 785.496094 C 8.257812 786.5625 8.632812 787.609375 9.058594 788.640625 C 9.484375 789.671875 9.960938 790.675781 10.488281 791.660156 C 11.011719 792.644531 11.585938 793.597656 12.203125 794.527344 C 12.824219 795.453125 13.488281 796.347656 14.195312 797.210938 C 14.902344 798.070312 15.648438 798.894531 16.4375 799.683594 C 17.226562 800.472656 18.050781 801.222656 18.910156 801.929688 C 19.773438 802.636719 20.667969 803.296875 21.59375 803.917969 C 22.523438 804.535156 23.476562 805.109375 24.460938 805.632812 C 25.445312 806.160156 26.449219 806.636719 27.480469 807.0625 C 28.511719 807.488281 29.558594 807.863281 30.625 808.1875 C 31.691406 808.507812 32.773438 808.78125 33.867188 808.996094 C 34.960938 809.214844 36.0625 809.375 37.171875 809.484375 C 38.28125 809.59375 39.394531 809.648438 40.507812 809.648438 L 772.894531 809.648438 C 774.011719 809.648438 775.121094 809.59375 776.230469 809.484375 C 777.339844 809.375 778.441406 809.214844 779.535156 808.996094 C 780.628906 808.78125 781.710938 808.507812 782.777344 808.1875 C 783.84375 807.863281 784.890625 807.488281 785.921875 807.0625 C 786.953125 806.636719 787.960938 806.160156 788.941406 805.632812 C 789.925781 805.109375 790.882812 804.535156 791.808594 803.917969 C 792.734375 803.296875 793.628906 802.636719 794.492188 801.929688 C 795.351562 801.222656 796.179688 800.472656 796.964844 799.683594 C 797.753906 798.894531 798.503906 798.070312 799.210938 797.210938 C 799.917969 796.347656 800.578125 795.453125 801.199219 794.527344 C 801.820312 793.597656 802.390625 792.644531 802.917969 791.660156 C 803.441406 790.675781 803.917969 789.671875 804.34375 788.640625 C 804.769531 787.609375 805.144531 786.5625 805.46875 785.496094 C 805.792969 784.429688 806.0625 783.347656 806.277344 782.253906 C 806.496094 781.160156 806.65625 780.058594 806.765625 778.949219 C 806.875 777.839844 806.929688 776.730469 806.929688 775.613281 C 806.921875 767.457031 806.667969 759.304688 806.164062 751.164062 C 805.660156 743.019531 804.910156 734.898438 803.914062 726.804688 C 802.914062 718.707031 801.667969 710.648438 800.179688 702.625 C 798.6875 694.605469 796.953125 686.636719 794.976562 678.722656 C 793 670.808594 790.785156 662.960938 788.328125 655.179688 C 785.875 647.398438 783.183594 639.703125 780.257812 632.085938 C 777.332031 624.46875 774.179688 616.949219 770.796875 609.527344 C 767.410156 602.105469 763.804688 594.789062 759.972656 587.585938 C 756.144531 580.382812 752.097656 573.304688 747.835938 566.347656 C 743.574219 559.390625 739.101562 552.570312 734.425781 545.886719 C 729.746094 539.203125 724.871094 532.667969 719.792969 526.285156 C 714.714844 519.898438 709.449219 513.671875 703.992188 507.609375 C 698.535156 501.542969 692.898438 495.648438 687.082031 489.929688 C 681.265625 484.207031 675.28125 478.671875 669.125 473.316406 C 662.972656 467.960938 656.660156 462.796875 650.191406 457.828125 C 643.722656 452.855469 637.105469 448.085938 630.347656 443.519531 Z M 630.347656 443.519531 " fill-opacity="1" fill-rule="nonzero"/></svg>